<svg width="19" height="17" viewBox="0 0 19 17" fill="none" xmlns="http://www.w3.org/2000/svg">
<g opacity="0.5">
<path d="M1.46094 0.834961H6.46094C7.34499 0.834961 8.19284 1.18615 8.81796 1.81127C9.44308 2.43639 9.79427 3.28424 9.79427 4.16829V15.835C9.79427 15.1719 9.53088 14.536 9.06204 14.0672C8.5932 13.5984 7.95731 13.335 7.29427 13.335H1.46094V0.834961Z" fill="#4B4B4B" fill-opacity="0.28" stroke="#4B465C" stroke-linecap="round" stroke-linejoin="round"/>
<path d="M18.1185 0.834961H13.1185C12.2344 0.834961 11.3866 1.18615 10.7615 1.81127C10.1363 2.43639 9.78516 3.28424 9.78516 4.16829V15.835C9.78516 15.1719 10.0485 14.536 10.5174 14.0672C10.9862 13.5984 11.6221 13.335 12.2852 13.335H18.1185V0.834961Z" fill="#4B4B4B" fill-opacity="0.28" stroke="#4B465C" stroke-linecap="round" stroke-linejoin="round"/>
</g>
</svg>
