<svg xmlns="http://www.w3.org/2000/svg" viewBox="0 0 1402.264 288.648">
  <g>
    <path d="M90.039 0h43.524v177.344c0 30.234-7.974 56.482-23.258 78.411-15.283 21.928-43.856 32.893-85.718 32.893H0V246.12h30.566c39.538-3.322 59.472-23.922 59.472-62.463V0z" fill="#006b2b"/>
    <path d="M283.405 241.2v-95.354c-.332-8.305-2.657-15.949-6.977-22.592-3.987-6.645-9.968-12.293-17.609-15.948-7.974-3.987-16.944-5.98-27.244-5.98-7.31 0-14.952 1.994-22.592 5.316-7.975 3.654-14.62 9.635-20.268 17.941-5.648 8.307-8.638 19.271-8.638 32.893 0 11.96 2.327 22.259 7.31 31.229 4.651 8.64 10.963 15.616 18.938 20.269 7.974 4.65 16.28 6.978 25.251 6.978 15.283 0 28.573-7.975 40.534-23.259v36.549c-6.313 4.318-10.964 6.977-13.621 8.637-2.992 1.662-6.646 3.322-11.297 4.653-4.652 1.328-10.965 1.991-18.274 2.325-12.957 0-25.582-3.656-37.544-10.965-11.96-6.978-21.595-17.276-29.237-30.567-7.31-13.29-10.965-28.572-10.965-45.849 0-15.617 2.991-29.903 9.303-42.861 6.313-12.958 15.949-22.925 28.241-30.566 12.625-7.642 27.577-11.628 45.186-11.628 12.625 0 23.922 1.993 33.89 6.313 9.967 3.987 18.606 9.633 25.25 16.611 6.645 6.978 11.628 14.952 14.951 24.254 3.322 8.971 5.317 18.606 5.317 28.573V241.2z" fill="#000"/>
    <path d="M342.214 241.2V127.573c0-9.635 2.657-18.606 7.308-26.912 4.984-8.639 11.629-15.283 20.6-20.267 8.64-5.316 18.939-7.974 30.899-7.974 17.61.664 32.229 8.306 43.525 23.589 3.987-6.645 10.299-12.293 18.605-16.613 8.307-4.651 17.941-6.977 28.906-6.977 9.634 0 18.605 2.657 27.244 7.641 8.306 4.984 15.283 11.629 20.267 19.936 4.984 8.638 7.642 17.941 7.642 27.576v113.627h-28.905V136.877c0-8.971-1.994-16.946-6.646-24.255-4.32-6.978-11.629-10.964-21.597-11.296-11.296 0-18.938 3.654-23.921 10.632-4.652 6.977-6.978 15.284-6.978 24.919v104.324h-29.57V138.869c0-11.296-2.657-20.6-7.641-27.245-4.652-6.645-11.96-10.299-21.597-10.299-11.629.332-19.603 4.318-23.59 11.296-3.986 7.31-5.648 16.613-5.648 28.573V241.2z" fill="#000"/>
    <path d="M576.779 0h28.906v155.149c0 11.296 1.993 21.263 6.312 30.566 4.318 9.304 10.301 16.613 17.941 21.928 7.973 5.316 16.944 8.308 27.245 8.308 11.296 0 20.931-2.991 28.573-8.972 7.973-5.647 13.622-13.29 17.609-22.261 3.985-8.639 5.648-17.608 5.648-26.912-.332-12.625-2.99-22.925-7.974-31.563-4.984-8.639-11.296-14.62-18.938-18.606-7.642-3.987-15.616-6.313-23.59-6.313-8.306 0-15.616 1.33-21.596 3.654-5.98 2.326-12.625 5.98-19.603 10.633V84.047c11.629-7.642 24.586-11.628 39.205-11.628 11.296 0 21.929 1.993 31.564 5.979 9.966 3.655 18.938 9.303 26.247 16.613 7.641 7.309 13.288 15.947 17.607 26.248 3.989 9.968 5.982 20.932 5.982 33.224 0 15.948-2.991 30.567-9.636 44.522-6.313 13.621-15.615 24.917-27.908 33.223-12.293 8.308-26.581 12.627-43.192 12.627-15.616-.334-29.239-4.319-41.531-12.293-12.294-7.976-21.929-18.274-28.574-31.564-6.977-12.957-10.299-27.245-10.299-42.196V0z" fill="#000"/>
    <path d="M839.63 243.635c46.382 0 84.33-37.669 84.33-83.971 0-46.695-37.947-84.364-84.33-84.364-46.057 0-84.006 37.67-84.006 84.364 0 46.302 37.949 83.971 84.006 83.971z" fill="#006b2b"/>
    <path d="M943.578 76.074h27.577v19.27c3.986-6.645 9.303-11.96 16.279-16.28 6.979-4.319 15.284-6.644 24.92-6.644h8.972v28.905h-6.979c-14.616 0-25.252 5.648-31.563 16.944-6.313 11.297-9.634 23.589-10.3 36.215V241.2h-28.906z" fill="#000"/>
    <path d="M1069.168 162.458l78.744-45.517c-4.32-4.651-8.972-8.307-13.956-11.297-4.651-2.657-12.293-4.318-22.924-4.318-9.97 0-19.271 2.658-26.912 7.973-7.642 5.648-13.29 12.626-17.609 21.93-3.988 8.97-5.98 19.269-5.98 30.234.332 9.303 2.657 17.94 6.646 26.248 4.32 8.638 10.299 15.282 17.94 20.267 7.642 5.315 16.613 7.975 27.244 7.975 15.947-.332 27.909-4.984 35.883-13.622 7.972-8.64 13.622-21.265 16.613-38.541l29.236 4.318c-.331 7.974-1.993 16.28-5.647 25.25-3.654 8.64-8.971 16.946-15.947 24.919-7.311 7.975-15.95 14.62-26.249 19.603-10.631 4.985-22.592 7.31-35.882 7.642-13.953 0-26.912-3.654-39.537-11.296-12.295-7.641-22.261-17.608-29.569-30.566-7.31-12.626-10.964-26.58-10.964-41.199 0-14.95 2.325-28.24 7.309-39.537 4.65-11.628 10.964-20.932 19.271-28.573 7.975-7.31 16.611-12.959 26.247-16.281 9.302-3.654 18.938-5.647 27.909-5.647 18.272 0 33.224 4.318 45.516 12.958 12.294 8.638 22.927 21.595 31.897 39.536l-106.65 62.131z" fill="#000"/>
    <path d="M1252.568 162.458l78.41-45.517c-4.319-4.651-8.971-8.307-13.953-11.297-4.654-2.657-12.294-4.318-22.927-4.318-9.968 0-18.938 2.658-26.58 7.973-7.64 5.648-13.621 12.626-17.608 21.93-4.318 8.97-6.313 19.269-6.313 30.234.332 9.303 2.659 17.94 6.977 26.248 3.988 8.638 9.967 15.282 17.61 20.267 7.642 5.315 16.944 7.975 27.243 7.975 16.28-.332 28.242-4.984 35.883-13.622 7.975-8.64 13.623-21.265 16.946-38.541l28.903 4.318c-.332 7.974-1.991 16.28-5.647 25.25-3.654 8.64-8.972 16.946-15.948 24.919-6.977 7.975-15.947 14.62-26.247 19.603-10.633 4.985-22.594 7.31-35.882 7.642-13.955 0-26.914-3.654-39.205-11.296-12.627-7.641-22.261-17.608-29.904-30.566-7.309-12.626-10.963-26.58-10.963-41.199 0-14.95 2.325-28.24 7.311-39.537 4.648-11.628 11.296-20.932 19.271-28.573 7.973-7.31 16.611-12.959 26.245-16.281 9.637-3.654 18.939-5.647 27.909-5.647 18.272 0 33.226 4.318 45.519 12.958 12.293 8.638 22.924 21.595 31.896 39.536l-106.651 62.131z" fill="#000"/>
    <path d="M1344.702 56.067V23.293h-12.242v-4.385h29.453v4.385h-12.293v32.773h-4.918z" fill="#000"/>
    <path d="M1366.805 56.067V18.908h7.401l8.796 26.31a271.18 271.18 0 0 1 1.773 5.5 259.346 259.346 0 0 1 1.978-5.957l8.896-25.854h6.615v37.159h-4.739v-31.1l-10.798 31.101h-4.436l-10.747-31.633v31.633z" fill="#000"/>
  </g>
</svg>
