<svg width="18" height="19" viewBox="0 0 18 19" fill="none" xmlns="http://www.w3.org/2000/svg">
<path fill-rule="evenodd" clip-rule="evenodd" d="M8.88525 16.25C7.191 16.25 5.643 15.7498 4.446 14.75H1.5L2.781 12.3005C2.37225 11.42 2.21175 10.466 2.2125 9.5C2.2125 5.7725 5.0925 2.75 8.886 2.75C12.675 2.75 15.75 5.7725 15.75 9.5C15.75 13.229 12.6765 16.25 8.88525 16.25Z" fill="#FF7759" stroke="white" stroke-opacity="0.2" stroke-width="1.2" stroke-linecap="round" stroke-linejoin="round"/>
<path d="M8.5 12.9999V13.0099" stroke="white" stroke-width="1.5" stroke-linecap="round" stroke-linejoin="round"/>
<path d="M8.5 12.9999V13.0099" stroke="white" stroke-opacity="0.2" stroke-width="1.5" stroke-linecap="round" stroke-linejoin="round"/>
<path d="M8.49937 10.0001C9.19304 10.0004 9.79646 9.52511 9.95859 8.85066C10.1207 8.17621 9.79924 7.47857 9.18121 7.16361C8.56317 6.84866 7.80979 6.99854 7.35938 7.52608" stroke="white" stroke-width="1.5" stroke-linecap="round" stroke-linejoin="round"/>
<path d="M8.49937 10.0001C9.19304 10.0004 9.79646 9.52511 9.95859 8.85066C10.1207 8.17621 9.79924 7.47857 9.18121 7.16361C8.56317 6.84866 7.80979 6.99854 7.35938 7.52608" stroke="white" stroke-opacity="0.2" stroke-width="1.5" stroke-linecap="round" stroke-linejoin="round"/>
</svg>
